<?xml version="1.0" encoding="UTF-8"?>
<!DOCTYPE svg PUBLIC "-//W3C//DTD SVG 1.1//EN" "http://www.w3.org/Graphics/SVG/1.1/DTD/svg11.dtd">
<svg xmlns="http://www.w3.org/2000/svg" version="1.1" width="50px" height="50px" style="shape-rendering:geometricPrecision; text-rendering:geometricPrecision; image-rendering:optimizeQuality; fill-rule:evenodd; clip-rule:evenodd" xmlns:xlink="http://www.w3.org/1999/xlink">
<g><path style="opacity:0.957" fill="#232a31" d="M 11.5,6.5 C 15.5025,6.97128 18.6692,8.97128 21,12.5C 21.6667,13.8333 21.6667,15.1667 21,16.5C 19.3149,18.0175 17.8149,19.6841 16.5,21.5C 18.8333,26.5 22.5,30.1667 27.5,32.5C 29.3159,31.1851 30.9825,29.6851 32.5,28C 37.3019,28.2743 40.6352,30.7743 42.5,35.5C 40.1178,40.5263 36.1178,42.693 30.5,42C 19.2147,36.5493 11.2147,28.0493 6.5,16.5C 7.12338,12.5864 8.79005,9.25312 11.5,6.5 Z"/></g>
<g><path style="opacity:1" fill="#5bb28a" d="M 11.5,8.5 C 20.8165,10.7686 21.8165,15.1019 14.5,21.5C 17.1667,27.5 21.5,31.8333 27.5,34.5C 29.3159,33.1851 30.9825,31.6851 32.5,30C 36.5932,29.5724 39.2598,31.4057 40.5,35.5C 40.4712,37.0293 39.8045,38.196 38.5,39C 35.594,40.3185 32.594,40.6518 29.5,40C 19.4485,34.7878 12.4485,26.9544 8.5,16.5C 8.72576,13.4828 9.72576,10.8162 11.5,8.5 Z"/></g>
</svg>
