<?xml version="1.0" encoding="UTF-8"?>
<!DOCTYPE svg PUBLIC "-//W3C//DTD SVG 1.1//EN" "http://www.w3.org/Graphics/SVG/1.1/DTD/svg11.dtd">
<svg xmlns="http://www.w3.org/2000/svg" version="1.1" width="94px" height="94px" style="shape-rendering:geometricPrecision; text-rendering:geometricPrecision; image-rendering:optimizeQuality; fill-rule:evenodd; clip-rule:evenodd" xmlns:xlink="http://www.w3.org/1999/xlink">
<g><path style="opacity:0.016" fill="#1389db" d="M 44.5,5.5 C 45.6009,4.40168 46.9343,4.23502 48.5,5C 47.2068,5.49001 45.8734,5.65668 44.5,5.5 Z"/></g>
<g><path style="opacity:0.996" fill="#1885de" d="M 64.5,15.5 C 63.1667,15.8333 63.1667,16.1667 64.5,16.5C 65.1667,17.1667 65.8333,17.8333 66.5,18.5C 57.9196,17.2201 49.253,15.2201 40.5,12.5C 39.3044,12.8457 39.3044,13.3457 40.5,14C 47.7529,17.1954 55.0862,20.1954 62.5,23C 56.3193,23.1724 50.3193,23.6724 44.5,24.5C 36.16,24.6664 27.8267,24.4997 19.5,24C 24.5,23.6667 29.5,23.3333 34.5,23C 32.4233,22.8078 30.4233,22.3078 28.5,21.5C 27.1931,20.135 27.1931,18.8016 28.5,17.5C 33.9326,13.2417 39.7659,9.57502 46,6.5C 51.7581,8.71321 57.0914,11.7132 62,15.5C 62.9772,14.2264 63.8106,14.2264 64.5,15.5 Z"/></g>
<g><path style="opacity:0.016" fill="#0e74d7" d="M 64.5,15.5 C 65.8333,16.1667 65.8333,16.1667 64.5,15.5 Z"/></g>
<g><path style="opacity:0.016" fill="#1082ef" d="M 78.5,24.5 C 79.8333,25.1667 79.8333,25.1667 78.5,24.5 Z"/></g>
<g><path style="opacity:1" fill="#f3f3f6" d="M 19.5,25.5 C 37.1667,25.5 54.8333,25.5 72.5,25.5C 70.0521,26.4731 67.3854,26.8064 64.5,26.5C 63.5,26.5 62.5,26.5 61.5,26.5C 56.1563,26.334 50.8229,26.5006 45.5,27C 46.1667,27.3333 46.8333,27.6667 47.5,28C 39.8216,32.0068 31.8216,35.1735 23.5,37.5C 22.3527,37.1822 21.5194,36.5156 21,35.5C 20.5172,36.448 20.3505,37.448 20.5,38.5C 19.5151,34.3656 19.1818,30.0323 19.5,25.5 Z"/></g>
<g><path style="opacity:1" fill="#e5e6eb" d="M 61.5,26.5 C 60.9688,28.6237 59.6355,30.1237 57.5,31C 50.6522,34.59 43.6522,37.9233 36.5,41C 32.596,41.2877 28.9293,41.4543 25.5,41.5C 23.326,41.2503 21.6594,40.2503 20.5,38.5C 20.3505,37.448 20.5172,36.448 21,35.5C 21.5194,36.5156 22.3527,37.1822 23.5,37.5C 31.8216,35.1735 39.8216,32.0068 47.5,28C 46.8333,27.6667 46.1667,27.3333 45.5,27C 50.8229,26.5006 56.1563,26.334 61.5,26.5 Z"/></g>
<g><path style="opacity:1" fill="#dcdde3" d="M 61.5,26.5 C 62.5,26.5 63.5,26.5 64.5,26.5C 66.2922,27.3091 68.2922,27.8091 70.5,28C 62.3623,34.1264 53.6956,39.4597 44.5,44C 41.1832,44.4983 37.8499,44.665 34.5,44.5C 32.6656,43.506 30.9989,43.506 29.5,44.5C 27.7697,43.9744 26.4363,42.9744 25.5,41.5C 28.9293,41.4543 32.596,41.2877 36.5,41C 43.6522,37.9233 50.6522,34.59 57.5,31C 59.6355,30.1237 60.9688,28.6237 61.5,26.5 Z"/></g>
<g><path style="opacity:1" fill="#d7d7dd" d="M 72.5,25.5 C 73.4834,29.2984 73.8168,33.2984 73.5,37.5C 72.6909,35.7078 72.1909,33.7078 72,31.5C 70.98,32.8905 70.1466,34.3905 69.5,36C 62.9433,38.8855 56.61,42.2188 50.5,46C 44.8417,47.9956 39.5084,47.4956 34.5,44.5C 37.8499,44.665 41.1832,44.4983 44.5,44C 53.6956,39.4597 62.3623,34.1264 70.5,28C 68.2922,27.8091 66.2922,27.3091 64.5,26.5C 67.3854,26.8064 70.0521,26.4731 72.5,25.5 Z"/></g>
<g><path style="opacity:0.995" fill="#1e82e1" d="M 66.5,18.5 C 70.5,20.8333 74.5,23.1667 78.5,25.5C 79.8993,26.8897 81.5659,27.8897 83.5,28.5C 83.8333,29.8333 84.1667,31.1667 84.5,32.5C 83.5084,32.3284 82.8417,32.6618 82.5,33.5C 79.5999,34.4432 77.2666,36.1099 75.5,38.5C 75.1667,38.5 74.8333,38.5 74.5,38.5C 74.1667,38.5 73.8333,38.5 73.5,38.5C 73.5,38.1667 73.5,37.8333 73.5,37.5C 73.8168,33.2984 73.4834,29.2984 72.5,25.5C 63.3483,24.5064 54.015,24.1731 44.5,24.5C 50.3193,23.6724 56.3193,23.1724 62.5,23C 55.0862,20.1954 47.7529,17.1954 40.5,14C 39.3044,13.3457 39.3044,12.8457 40.5,12.5C 49.253,15.2201 57.9196,17.2201 66.5,18.5 Z"/></g>
<g><path style="opacity:0.004" fill="#1ca8e6" d="M 83.5,27.5 C 84.8333,28.1667 84.8333,28.1667 83.5,27.5 Z"/></g>
<g><path style="opacity:0.999" fill="#3ea3ee" d="M 28.5,17.5 C 27.1931,18.8016 27.1931,20.135 28.5,21.5C 30.4233,22.3078 32.4233,22.8078 34.5,23C 29.5,23.3333 24.5,23.6667 19.5,24C 27.8267,24.4997 36.16,24.6664 44.5,24.5C 54.015,24.1731 63.3483,24.5064 72.5,25.5C 54.8333,25.5 37.1667,25.5 19.5,25.5C 18.8337,29.3525 18.167,33.3525 17.5,37.5C 14.6067,35.5554 11.6067,33.8887 8.5,32.5C 8.75115,30.8297 9.41782,29.3297 10.5,28C 16.391,24.2244 22.391,20.7244 28.5,17.5 Z"/></g>
<g><path style="opacity:1" fill="#cccfd8" d="M 73.5,37.5 C 73.5,37.8333 73.5,38.1667 73.5,38.5C 64.4649,44.351 55.1316,49.6843 45.5,54.5C 40.2028,51.1807 34.8695,47.8474 29.5,44.5C 30.9989,43.506 32.6656,43.506 34.5,44.5C 39.5084,47.4956 44.8417,47.9956 50.5,46C 56.61,42.2188 62.9433,38.8855 69.5,36C 70.1466,34.3905 70.98,32.8905 72,31.5C 72.1909,33.7078 72.6909,35.7078 73.5,37.5 Z"/></g>
<g><path style="opacity:0.999" fill="#46beeb" d="M 82.5,33.5 C 82.6653,37.1817 82.4986,40.8484 82,44.5C 79.7696,48.9617 78.1029,53.6284 77,58.5C 74.245,60.766 72.9116,63.766 73,67.5C 70.7017,68.4457 68.8684,67.779 67.5,65.5C 69.1733,64.657 70.34,63.3237 71,61.5C 72.8333,54.6667 74.6667,47.8333 76.5,41C 76.2568,40.0979 75.9234,39.2646 75.5,38.5C 77.2666,36.1099 79.5999,34.4432 82.5,33.5 Z"/></g>
<g><path style="opacity:0.012" fill="#3bb8f0" d="M 85.5,76.5 C 85.3334,61.163 85.5001,45.8297 86,30.5C 86.8279,46.0055 86.6612,61.3389 85.5,76.5 Z"/></g>
<g><path style="opacity:0.998" fill="#39b5f0" d="M 84.5,32.5 C 84.5,47.1667 84.5,61.8333 84.5,76.5C 83.8333,76.5 83.5,76.8333 83.5,77.5C 83.1667,77.5 82.8333,77.5 82.5,77.5C 79.0242,74.3768 75.0242,72.0435 70.5,70.5C 67.5672,68.3548 64.5672,66.1882 61.5,64C 63.5056,64.1503 65.5056,64.6503 67.5,65.5C 68.8684,67.779 70.7017,68.4457 73,67.5C 72.9116,63.766 74.245,60.766 77,58.5C 78.1029,53.6284 79.7696,48.9617 82,44.5C 82.4986,40.8484 82.6653,37.1817 82.5,33.5C 82.8417,32.6618 83.5084,32.3284 84.5,32.5 Z"/></g>
<g><path style="opacity:1" fill="#4dc5f0" d="M 19.5,25.5 C 19.1818,30.0323 19.5151,34.3656 20.5,38.5C 21.6594,40.2503 23.326,41.2503 25.5,41.5C 26.4363,42.9744 27.7697,43.9744 29.5,44.5C 34.8695,47.8474 40.2028,51.1807 45.5,54.5C 50.475,56.8911 55.475,59.3911 60.5,62C 61.8989,62.5946 63.2322,62.4279 64.5,61.5C 67.0761,53.4159 70.4094,45.7492 74.5,38.5C 74.8333,38.5 75.1667,38.5 75.5,38.5C 75.9234,39.2646 76.2568,40.0979 76.5,41C 74.6667,47.8333 72.8333,54.6667 71,61.5C 70.34,63.3237 69.1733,64.657 67.5,65.5C 65.5056,64.6503 63.5056,64.1503 61.5,64C 64.5672,66.1882 67.5672,68.3548 70.5,70.5C 70.2648,71.0967 69.7648,71.4301 69,71.5C 63.3119,69.0724 57.8119,66.239 52.5,63C 44.1887,60.6776 36.522,57.011 29.5,52C 23.4042,49.7871 17.4042,47.2871 11.5,44.5C 10.2719,45.3065 9.27187,46.3065 8.5,47.5C 8.5,42.5 8.5,37.5 8.5,32.5C 11.6067,33.8887 14.6067,35.5554 17.5,37.5C 18.167,33.3525 18.8337,29.3525 19.5,25.5 Z"/></g>
<g><path style="opacity:0.012" fill="#2ab2f2" d="M 6.5,30.5 C 7.6612,45.6611 7.82787,60.9945 7,76.5C 6.50008,61.1703 6.33341,45.837 6.5,30.5 Z"/></g>
<g><path style="opacity:1" fill="#6ccff1" d="M 73.5,38.5 C 73.8333,38.5 74.1667,38.5 74.5,38.5C 70.4094,45.7492 67.0761,53.4159 64.5,61.5C 63.2322,62.4279 61.8989,62.5946 60.5,62C 55.475,59.3911 50.475,56.8911 45.5,54.5C 55.1316,49.6843 64.4649,44.351 73.5,38.5 Z"/></g>
<g><path style="opacity:0.999" fill="#1badeb" d="M 51.5,78.5 C 43.1667,78.5 34.8333,78.5 26.5,78.5C 26.8039,77.8501 27.1373,77.1835 27.5,76.5C 24.6826,74.1833 22.0159,71.6833 19.5,69C 19.8333,68 20.1667,67 20.5,66C 18.8934,64.951 18.2267,63.451 18.5,61.5C 15.7276,61.78 13.2276,61.1134 11,59.5C 10.1482,60.5707 9.31491,61.5707 8.5,62.5C 8.5,58.8333 8.5,55.1667 8.5,51.5C 9.47332,50.016 10.8067,49.516 12.5,50C 26.6671,58.918 41.0005,67.5847 55.5,76C 53.8333,76.3333 52.1667,76.6667 50.5,77C 51.056,77.3826 51.3893,77.8826 51.5,78.5 Z"/></g>
<g><path style="opacity:1" fill="#2ebaed" d="M 11.5,44.5 C 22.6001,51.8919 33.9334,59.0586 45.5,66C 49.8797,67.1783 54.2131,68.5117 58.5,70C 61.328,72.2481 64.328,74.2481 67.5,76C 65.1671,77.043 62.8337,77.8763 60.5,78.5C 57.5,78.5 54.5,78.5 51.5,78.5C 51.3893,77.8826 51.056,77.3826 50.5,77C 52.1667,76.6667 53.8333,76.3333 55.5,76C 41.0005,67.5847 26.6671,58.918 12.5,50C 10.8067,49.516 9.47332,50.016 8.5,51.5C 8.5,50.1667 8.5,48.8333 8.5,47.5C 9.27187,46.3065 10.2719,45.3065 11.5,44.5 Z"/></g>
<g><path style="opacity:0.998" fill="#3ec0ee" d="M 11.5,44.5 C 17.4042,47.2871 23.4042,49.7871 29.5,52C 36.522,57.011 44.1887,60.6776 52.5,63C 57.8119,66.239 63.3119,69.0724 69,71.5C 69.7648,71.4301 70.2648,71.0967 70.5,70.5C 75.0242,72.0435 79.0242,74.3768 82.5,77.5C 82.5,77.8333 82.5,78.1667 82.5,78.5C 75.1667,78.5 67.8333,78.5 60.5,78.5C 62.8337,77.8763 65.1671,77.043 67.5,76C 64.328,74.2481 61.328,72.2481 58.5,70C 54.2131,68.5117 49.8797,67.1783 45.5,66C 33.9334,59.0586 22.6001,51.8919 11.5,44.5 Z"/></g>
<g><path style="opacity:0.008" fill="#3fc5f8" d="M 84.5,76.5 C 84.8333,76.5 85.1667,76.5 85.5,76.5C 85.3147,77.1701 84.9813,77.1701 84.5,76.5 Z"/></g>
<g><path style="opacity:0.247" fill="#1a97eb" d="M 26.5,78.5 C 21.1563,78.666 15.8229,78.4994 10.5,78C 10,77.5 9.5,77 9,76.5C 8.50085,71.8452 8.33418,67.1785 8.5,62.5C 9.31491,61.5707 10.1482,60.5707 11,59.5C 13.2276,61.1134 15.7276,61.78 18.5,61.5C 18.2267,63.451 18.8934,64.951 20.5,66C 20.1667,67 19.8333,68 19.5,69C 22.0159,71.6833 24.6826,74.1833 27.5,76.5C 27.1373,77.1835 26.8039,77.8501 26.5,78.5 Z"/></g>
<g><path style="opacity:0.004" fill="#22c1fd" d="M 83.5,77.5 C 83.8333,77.5 84.1667,77.5 84.5,77.5C 84.3147,78.1701 83.9813,78.1701 83.5,77.5 Z"/></g>
<g><path style="opacity:0.004" fill="#2597f1" d="M 82.5,78.5 C 82.8333,78.5 83.1667,78.5 83.5,78.5C 83.3147,79.1701 82.9813,79.1701 82.5,78.5 Z"/></g>
<g><path style="opacity:0.012" fill="#38b5eb" d="M 82.5,79.5 C 58.6702,80.6632 34.6702,80.8298 10.5,80C 34.4977,79.5 58.4977,79.3334 82.5,79.5 Z"/></g>
</svg>
