<?xml version="1.0" encoding="UTF-8"?>
<!DOCTYPE svg PUBLIC "-//W3C//DTD SVG 1.1//EN" "http://www.w3.org/Graphics/SVG/1.1/DTD/svg11.dtd">
<svg xmlns="http://www.w3.org/2000/svg" version="1.1" width="80px" height="80px" style="shape-rendering:geometricPrecision; text-rendering:geometricPrecision; image-rendering:optimizeQuality; fill-rule:evenodd; clip-rule:evenodd" xmlns:xlink="http://www.w3.org/1999/xlink">
<g><path style="opacity:0.821" fill="#c94846" d="M 58.5,45.5 C 57.5,45.8333 56.8333,46.5 56.5,47.5C 51.826,56.1731 46.1593,64.1731 39.5,71.5C 32.8407,64.1731 27.174,56.1731 22.5,47.5C 22.1667,46.5 21.5,45.8333 20.5,45.5C 15.4308,35.9773 14.2641,25.9773 17,15.5C 25.8425,0.954651 38.0092,-2.54535 53.5,5C 62.6423,12.4267 65.809,21.9267 63,33.5C 61.7864,37.6449 60.2864,41.6449 58.5,45.5 Z"/></g>
<g><path style="opacity:1" fill="#f68d8d" d="M 33.5,3.5 C 46.751,2.03584 55.9177,7.36917 61,19.5C 61.7087,31.9945 58.3753,43.3278 51,53.5C 47.3582,58.6424 43.5249,63.6424 39.5,68.5C 30.6501,58.81 23.8167,47.81 19,35.5C 14.9358,20.6374 19.7691,9.9707 33.5,3.5 Z"/></g>
<g><path style="opacity:1" fill="#cb4c4b" d="M 35.5,13.5 C 48.0181,13.5049 52.8514,19.5049 50,31.5C 43.0126,39.4019 36.0126,39.4019 29,31.5C 25.8203,23.5325 27.987,17.5325 35.5,13.5 Z"/></g>
<g><path style="opacity:1" fill="#f1f4f8" d="M 35.5,15.5 C 47.824,15.4888 51.6574,21.1555 47,32.5C 39.6825,37.5112 34.0158,36.1778 30,28.5C 28.8312,22.8527 30.6645,18.5194 35.5,15.5 Z"/></g>
<g><path style="opacity:0.906" fill="#bd9e4b" d="M 20.5,45.5 C 21.5,45.8333 22.1667,46.5 22.5,47.5C 18.8936,47.2108 15.3936,47.5442 12,48.5C 8.85134,57.4438 6.01801,66.4438 3.5,75.5C 27.5,75.5 51.5,75.5 75.5,75.5C 72.982,66.4438 70.1487,57.4438 67,48.5C 63.6064,47.5442 60.1064,47.2108 56.5,47.5C 56.8333,46.5 57.5,45.8333 58.5,45.5C 62.1064,45.2108 65.6064,45.5442 69,46.5C 72.0378,56.456 75.5378,66.1227 79.5,75.5C 79.5,76.1667 79.5,76.8333 79.5,77.5C 52.8333,77.5 26.1667,77.5 -0.5,77.5C -0.5,76.8333 -0.5,76.1667 -0.5,75.5C 3.46221,66.1227 6.96221,56.456 10,46.5C 13.3936,45.5442 16.8936,45.2108 20.5,45.5 Z"/></g>
<g><path style="opacity:1" fill="#feeca1" d="M 22.5,47.5 C 27.174,56.1731 32.8407,64.1731 39.5,71.5C 46.1593,64.1731 51.826,56.1731 56.5,47.5C 60.1064,47.2108 63.6064,47.5442 67,48.5C 70.1487,57.4438 72.982,66.4438 75.5,75.5C 51.5,75.5 27.5,75.5 3.5,75.5C 6.01801,66.4438 8.85134,57.4438 12,48.5C 15.3936,47.5442 18.8936,47.2108 22.5,47.5 Z"/></g>
</svg>
